<svg width="512" height="307" viewBox="0 0 512 307" fill="none" xmlns="http://www.w3.org/2000/svg">
<circle cx="358.689" cy="153.311" r="153.311" fill="#777EBA"/>
<circle cx="153.311" cy="153.311" r="153.311" fill="#545EB9"/>
<path d="M179.09 155.926C179.09 155.105 178.963 154.373 178.709 153.729C178.475 153.064 178.036 152.469 177.391 151.941C176.766 151.395 175.877 150.867 174.725 150.359C173.592 149.832 172.127 149.285 170.331 148.719C168.338 148.094 166.483 147.391 164.764 146.609C163.045 145.828 161.532 144.92 160.223 143.885C158.934 142.85 157.928 141.658 157.206 140.311C156.483 138.943 156.122 137.361 156.122 135.564C156.122 133.807 156.493 132.205 157.235 130.76C157.997 129.314 159.071 128.074 160.457 127.039C161.844 125.984 163.475 125.174 165.35 124.607C167.245 124.041 169.334 123.758 171.62 123.758C174.784 123.758 177.518 124.334 179.823 125.486C182.147 126.639 183.944 128.201 185.213 130.174C186.483 132.146 187.118 134.363 187.118 136.824H179.09C179.09 135.496 178.807 134.324 178.241 133.309C177.694 132.293 176.854 131.492 175.721 130.906C174.608 130.32 173.202 130.027 171.502 130.027C169.862 130.027 168.495 130.271 167.401 130.76C166.327 131.248 165.516 131.912 164.969 132.752C164.442 133.592 164.178 134.529 164.178 135.564C164.178 136.346 164.364 137.049 164.735 137.674C165.106 138.279 165.663 138.855 166.405 139.402C167.147 139.93 168.065 140.428 169.159 140.896C170.272 141.346 171.561 141.795 173.026 142.244C175.37 142.947 177.42 143.729 179.178 144.588C180.956 145.447 182.43 146.424 183.602 147.518C184.793 148.611 185.682 149.842 186.268 151.209C186.873 152.576 187.176 154.129 187.176 155.867C187.176 157.703 186.815 159.344 186.092 160.789C185.37 162.234 184.334 163.465 182.987 164.48C181.639 165.496 180.018 166.268 178.123 166.795C176.248 167.322 174.149 167.586 171.825 167.586C169.754 167.586 167.704 167.312 165.672 166.766C163.661 166.199 161.834 165.359 160.194 164.246C158.553 163.113 157.245 161.688 156.268 159.969C155.291 158.23 154.803 156.199 154.803 153.875H162.889C162.889 155.223 163.104 156.375 163.534 157.332C163.983 158.27 164.608 159.041 165.409 159.646C166.229 160.232 167.186 160.662 168.28 160.936C169.373 161.209 170.555 161.346 171.825 161.346C173.465 161.346 174.813 161.121 175.868 160.672C176.942 160.203 177.743 159.559 178.27 158.738C178.817 157.918 179.09 156.98 179.09 155.926ZM203.536 141.395V179.188H195.772V135.301H202.95L203.536 141.395ZM223.897 150.828V151.443C223.897 153.748 223.623 155.887 223.077 157.859C222.549 159.812 221.768 161.521 220.733 162.986C219.698 164.432 218.409 165.564 216.866 166.385C215.342 167.186 213.584 167.586 211.592 167.586C209.639 167.586 207.94 167.215 206.495 166.473C205.049 165.711 203.829 164.637 202.832 163.25C201.836 161.863 201.036 160.252 200.43 158.416C199.844 156.561 199.405 154.539 199.112 152.352V150.389C199.405 148.064 199.844 145.955 200.43 144.061C201.036 142.146 201.836 140.496 202.832 139.109C203.829 137.703 205.039 136.619 206.465 135.857C207.911 135.096 209.6 134.715 211.534 134.715C213.545 134.715 215.313 135.096 216.836 135.857C218.379 136.619 219.678 137.713 220.733 139.139C221.788 140.564 222.579 142.264 223.106 144.236C223.633 146.209 223.897 148.406 223.897 150.828ZM216.133 151.443V150.828C216.133 149.422 216.006 148.123 215.752 146.932C215.498 145.721 215.108 144.666 214.581 143.768C214.053 142.85 213.37 142.137 212.53 141.629C211.69 141.121 210.674 140.867 209.483 140.867C208.291 140.867 207.266 141.062 206.407 141.453C205.547 141.844 204.844 142.4 204.297 143.123C203.75 143.846 203.321 144.705 203.008 145.701C202.715 146.678 202.52 147.762 202.422 148.953V153.816C202.598 155.262 202.94 156.561 203.448 157.713C203.956 158.865 204.698 159.783 205.674 160.467C206.67 161.15 207.959 161.492 209.541 161.492C210.733 161.492 211.748 161.229 212.588 160.701C213.428 160.174 214.112 159.451 214.639 158.533C215.166 157.596 215.547 156.521 215.782 155.311C216.016 154.1 216.133 152.811 216.133 151.443ZM240.754 122V167H232.991V122H240.754ZM259.34 135.301V167H251.577V135.301H259.34ZM251.049 127.01C251.049 125.857 251.44 124.9 252.221 124.139C253.022 123.377 254.096 122.996 255.444 122.996C256.791 122.996 257.856 123.377 258.637 124.139C259.438 124.9 259.838 125.857 259.838 127.01C259.838 128.143 259.438 129.09 258.637 129.852C257.856 130.613 256.791 130.994 255.444 130.994C254.096 130.994 253.022 130.613 252.221 129.852C251.44 129.09 251.049 128.143 251.049 127.01ZM284.723 135.301V140.867H266.559V135.301H284.723ZM271.422 127.508H279.186V157.859C279.186 158.797 279.313 159.52 279.567 160.027C279.821 160.535 280.202 160.877 280.709 161.053C281.217 161.229 281.823 161.316 282.526 161.316C283.034 161.316 283.502 161.287 283.932 161.229C284.362 161.17 284.723 161.111 285.016 161.053L285.045 166.854C284.401 167.068 283.668 167.244 282.848 167.381C282.047 167.518 281.139 167.586 280.123 167.586C278.385 167.586 276.862 167.293 275.553 166.707C274.245 166.102 273.229 165.135 272.506 163.807C271.784 162.459 271.422 160.682 271.422 158.475V127.508ZM327.754 147.986H316.856L316.797 142.303H326.143C327.745 142.303 329.082 142.078 330.157 141.629C331.231 141.18 332.041 140.525 332.588 139.666C333.155 138.807 333.438 137.762 333.438 136.531C333.438 135.164 333.174 134.051 332.647 133.191C332.139 132.332 331.338 131.707 330.245 131.316C329.151 130.906 327.764 130.701 326.084 130.701H319.463V167H311.407V124.344H326.084C328.506 124.344 330.664 124.578 332.559 125.047C334.473 125.496 336.094 126.199 337.422 127.156C338.75 128.113 339.756 129.314 340.44 130.76C341.143 132.205 341.495 133.924 341.495 135.916C341.495 137.674 341.084 139.295 340.264 140.779C339.463 142.244 338.223 143.436 336.543 144.354C334.883 145.271 332.774 145.799 330.215 145.936L327.754 147.986ZM327.403 167H314.483L317.852 160.672H327.403C329.004 160.672 330.323 160.408 331.358 159.881C332.413 159.354 333.194 158.631 333.702 157.713C334.229 156.775 334.493 155.701 334.493 154.49C334.493 153.162 334.258 152.01 333.789 151.033C333.34 150.057 332.618 149.305 331.622 148.777C330.645 148.25 329.356 147.986 327.754 147.986H319.375L319.434 142.303H330.098L331.944 144.5C334.405 144.52 336.407 145.008 337.95 145.965C339.512 146.922 340.664 148.152 341.407 149.656C342.149 151.16 342.52 152.781 342.52 154.52C342.52 157.254 341.924 159.549 340.733 161.404C339.561 163.26 337.842 164.656 335.577 165.594C333.331 166.531 330.606 167 327.403 167ZM360.11 135.301V167H352.346V135.301H360.11ZM351.819 127.01C351.819 125.857 352.209 124.9 352.991 124.139C353.791 123.377 354.866 122.996 356.213 122.996C357.561 122.996 358.625 123.377 359.407 124.139C360.207 124.9 360.608 125.857 360.608 127.01C360.608 128.143 360.207 129.09 359.407 129.852C358.625 130.613 357.561 130.994 356.213 130.994C354.866 130.994 353.791 130.613 352.991 129.852C352.209 129.09 351.819 128.143 351.819 127.01ZM378.696 122V167H370.932V122H378.696ZM397.282 122V167H389.518V122H397.282Z" fill="white"/>
</svg>
